<?xml version="1.0" encoding="utf-8"?>
<!-- Generator: Adobe Illustrator 16.0.0, SVG Export Plug-In . SVG Version: 6.00 Build 0)  -->
<!DOCTYPE svg PUBLIC "-//W3C//DTD SVG 1.1//EN" "http://www.w3.org/Graphics/SVG/1.1/DTD/svg11.dtd">
<svg version="1.1" id="Layer_1" xmlns="http://www.w3.org/2000/svg" xmlns:xlink="http://www.w3.org/1999/xlink" x="0px" y="0px"
	 width="200px" height="200px" viewBox="0 0 200 200" enable-background="new 0 0 200 200" xml:space="preserve">
<g>
	<path fill="#17434E" d="M99.998,198C45.962,198,2,154.037,2,100C2,45.962,45.962,2,99.998,2C154.036,2,198,45.962,198,100
		C198,154.037,154.036,198,99.998,198z"/>
	<path fill="#FFFFFF" d="M99.998,4C152.934,4,196,47.065,196,100s-43.066,96-96.002,96C47.064,196,4,152.935,4,100
		S47.064,4,99.998,4 M99.998,0C44.773,0,0,44.771,0,100c0,55.231,44.773,100,99.998,100C155.229,200,200,155.231,200,100
		C200,44.771,155.229,0,99.998,0L99.998,0z"/>
</g>
</svg>
