<?xml version="1.0" encoding="utf-8"?>
<!-- Generator: Adobe Illustrator 16.0.0, SVG Export Plug-In . SVG Version: 6.00 Build 0)  -->
<!DOCTYPE svg PUBLIC "-//W3C//DTD SVG 1.1//EN" "http://www.w3.org/Graphics/SVG/1.1/DTD/svg11.dtd">
<svg version="1.1" id="Layer_1" xmlns="http://www.w3.org/2000/svg" xmlns:xlink="http://www.w3.org/1999/xlink" x="0px" y="0px"
	 width="200px" height="200px" viewBox="0 0 200 200" enable-background="new 0 0 200 200" xml:space="preserve">
<g>
	<path fill="#17434E" d="M29.414,198C14.298,198,2,185.702,2,170.586V29.41C2,14.296,14.298,2,29.414,2H170.59
		C185.704,2,198,14.296,198,29.41v141.176C198,185.702,185.704,198,170.59,198H29.414z"/>
	<path fill="#FFFFFF" d="M170.59,4C184.602,4,196,15.399,196,29.41v141.176C196,184.6,184.602,196,170.59,196H29.414
		C15.4,196,4,184.6,4,170.586V29.41C4,15.399,15.4,4,29.414,4H170.59 M170.59,0H29.414C13.234,0,0,13.232,0,29.41v141.176
		C0,186.764,13.234,200,29.414,200H170.59c16.174,0,29.41-13.236,29.41-29.414V29.41C200,13.232,186.764,0,170.59,0L170.59,0z"/>
</g>
</svg>
