<?xml version="1.0" encoding="utf-8"?>
<!-- Generator: Adobe Illustrator 16.0.0, SVG Export Plug-In . SVG Version: 6.00 Build 0)  -->
<!DOCTYPE svg PUBLIC "-//W3C//DTD SVG 1.1//EN" "http://www.w3.org/Graphics/SVG/1.1/DTD/svg11.dtd">
<svg version="1.1" id="Layer_1" xmlns="http://www.w3.org/2000/svg" xmlns:xlink="http://www.w3.org/1999/xlink" x="0px" y="0px"
	 width="200px" height="200px" viewBox="0 0 200 200" enable-background="new 0 0 200 200" xml:space="preserve">
<g>
	<path fill="#17434E" d="M100,198c-4.623,0-8.924-1.014-12.111-2.854L23.66,158.061c-6.567-3.788-12.115-13.395-12.115-20.977
		V62.916c0-7.584,5.548-17.19,12.113-20.975l64.23-37.086C91.076,3.014,95.376,2,100,2c4.622,0,8.922,1.014,12.112,2.855
		l64.23,37.085c6.566,3.787,12.113,13.392,12.113,20.976v74.168c0,7.582-5.547,17.188-12.113,20.977l-64.23,37.084
		C108.922,196.986,104.621,198,100,198z"/>
	<path fill="#FFFFFF" d="M100,4c4.213,0,8.264,0.943,11.112,2.587l64.232,37.086c6.023,3.473,11.111,12.285,11.111,19.243v74.168
		c0,6.956-5.088,15.769-11.113,19.245l-64.23,37.084C108.264,195.057,104.213,196,100,196c-4.215,0-8.265-0.943-11.111-2.587
		l-64.23-37.085c-6.023-3.475-11.113-12.288-11.113-19.244V62.916c0-6.958,5.09-15.771,11.115-19.244L88.888,6.587
		C91.735,4.943,95.785,4,100,4 M100,0c-4.754,0-9.507,1.041-13.111,3.123L22.66,40.208C15.445,44.367,9.544,54.589,9.544,62.916
		v74.168c0,8.326,5.9,18.547,13.115,22.709l64.229,37.084C90.493,198.959,95.246,200,100,200c4.752,0,9.506-1.041,13.112-3.123
		l64.23-37.084c7.213-4.162,13.113-14.383,13.113-22.709V62.916c0-8.327-5.9-18.549-13.113-22.708l-64.23-37.085
		C109.506,1.041,104.752,0,100,0L100,0z"/>
</g>
<g>
	<path fill="none" d="M200,170.586C200,186.764,186.764,200,170.59,200H29.414C13.234,200,0,186.764,0,170.586V29.41
		C0,13.232,13.234,0,29.414,0H170.59C186.764,0,200,13.232,200,29.41V170.586z"/>
</g>
</svg>
