<?xml version="1.0" encoding="utf-8"?>
<!-- Generator: Adobe Illustrator 16.0.0, SVG Export Plug-In . SVG Version: 6.00 Build 0)  -->
<!DOCTYPE svg PUBLIC "-//W3C//DTD SVG 1.1//EN" "http://www.w3.org/Graphics/SVG/1.1/DTD/svg11.dtd">
<svg version="1.1" id="Layer_1" xmlns="http://www.w3.org/2000/svg" xmlns:xlink="http://www.w3.org/1999/xlink" x="0px" y="0px"
	 width="80px" height="80.004px" viewBox="0 0 80 80.004" enable-background="new 0 0 80 80.004" xml:space="preserve">
<g>
	<path fill="#FFFFFF" d="M40,0C17.943,0,0,17.943,0,40.004c0,22.056,17.943,40,40,40s40-17.944,40-40C80,17.943,62.057,0,40,0z
		 M40,78.546c-21.253,0-38.547-17.29-38.547-38.542C1.453,18.746,18.747,1.456,40,1.456c21.252,0,38.547,17.29,38.547,38.548
		C78.547,61.256,61.252,78.546,40,78.546z"/>
	<path fill="#FFFFFF" d="M60.98,27.989c-0.941-3.66-4.289-6.273-8.105-6.273h-0.031c-2.311-2.613-6.219-3.514-9.457-2.172
		c-2.985-1.729-6.912-1.384-9.549,0.823c-3.378-0.46-6.761,1.275-8.403,4.286c-3.204,1.249-5.334,4.342-5.334,7.801
		c0,0.537,0.054,1.09,0.166,1.646c-0.908,1.373-1.384,2.954-1.384,4.601c0,1.92,0.661,3.78,1.874,5.265
		c0.325,2.613,1.898,4.951,4.19,6.254l0.511,0.271c0.17,0.069,4.128,1.704,4.84,6.811c0,2.361,1.925,4.287,4.29,4.287
		c2.188,0,4.001-1.65,4.256-3.773h0.031l-0.004-5.377c-0.008-0.058-0.634-5.887,3.49-8.175c1.018-0.375,1.959-0.955,2.764-1.689
		c2.381,1.275,5.338,1.303,7.762,0.058c1.264,0.727,2.691,1.109,4.156,1.109c4.615,0,8.369-3.757,8.369-8.372
		C65.412,32.296,63.688,29.439,60.98,27.989z M57.043,42.13c-1.314,0-2.594-0.384-3.691-1.102l-0.418-0.274L52.5,41.009
		c-2.188,1.287-4.936,1.239-7.066-0.12l-0.562-0.359l-0.457,0.487c-0.711,0.754-1.588,1.345-2.543,1.712l-0.201,0.008l-0.154,0.159
		c-5.011,2.833-4.279,9.451-4.253,9.64v3.874l-0.073,0.019l0.073,0.874c0,1.194-0.79,2.195-1.871,2.538v-9.884
		c0-0.733-0.076-4.467-1.731-5.619c-0.182-0.128-0.405-0.263-0.661-0.418c-1.23-0.735-3.06-1.842-3.58-4.409
		c0.758-0.193,2.222-0.37,3.886,0.506c0.116,0.062,0.247,0.093,0.371,0.093c0.294,0,0.572-0.155,0.715-0.434
		c0.205-0.391,0.059-0.877-0.336-1.086c-1.938-1.017-3.702-0.924-4.781-0.7c0.008-0.542,0.065-1.132,0.182-1.778
		c0.005-0.02,0.033-0.11,0.083-0.24c0-0.002,0.001-0.004,0.002-0.006c0.302-0.78,1.512-3.154,5.071-3.256
		c0.094-0.003,0.181-0.016,0.274-0.021c0.001,0,0.003,0.001,0.004,0.001c0.016,0,0.031,0,0.047,0c0.015,0,0.028-0.007,0.042-0.008
		c1.351-0.09,2.505-0.447,3.465-1.001c0.837,1.428,2.413,5-0.659,7.828c-0.329,0.302-0.349,0.812-0.047,1.141
		c0.159,0.174,0.375,0.259,0.592,0.259c0.193,0,0.395-0.069,0.549-0.213c1.56-1.437,2.191-3.074,2.298-4.657
		c0.968-0.104,2.857-0.153,3.979,0.843c0.154,0.134,0.344,0.204,0.533,0.204c0.225,0,0.445-0.093,0.604-0.271
		c0.293-0.332,0.266-0.843-0.066-1.14c-1.541-1.368-3.857-1.373-5.113-1.251c-0.206-1.441-0.767-2.748-1.363-3.71
		c0.703-0.665,1.25-1.458,1.647-2.317c0.947,0.584,2.559,1.364,4.423,1.364c0.221,0,0.445-0.011,0.67-0.034
		c0.302-0.031,0.596-0.091,0.885-0.163c0.401,1.815,1.531,4.202,3.869,5.374c0.008,0.005,0.012,0.014,0.02,0.019
		c0.034,0.022,0.072,0.033,0.109,0.05c0.033,0.016,0.066,0.03,0.1,0.045c0,0,0.001,0,0.002,0c0.664,0.3,1.419,0.505,2.279,0.573
		c4.391,0.344,4.963,1.855,4.963,1.855c0.076,0.383,0.416,0.646,0.791,0.646c0.051,0,0.105-0.004,0.16-0.016
		c0.436-0.089,0.719-0.511,0.633-0.947c-0.059-0.273-0.703-2.693-6.424-3.147c-0.305-0.024-0.588-0.072-0.857-0.135
		c0.718-0.839,1.969-2.033,3.4-2.221c0.441-0.058,0.75-0.46,0.691-0.9c-0.057-0.441-0.451-0.766-0.9-0.696
		c-2.21,0.293-3.949,2.157-4.734,3.155c-1.779-1.165-2.385-3.27-2.574-4.26c0.878-0.486,1.688-1.186,2.42-2.108
		c0.273-0.347,0.217-0.857-0.133-1.132c-0.352-0.278-0.854-0.217-1.131,0.131c-1.076,1.361-2.328,2.126-3.719,2.273
		c-1.914,0.2-3.644-0.778-4.402-1.292c0.142-0.582,0.231-1.174,0.258-1.766c0.023-0.444-0.324-0.819-0.766-0.84
		c-0.425-0.022-0.823,0.326-0.843,0.771c-0.108,2.487-1.485,5.38-4.917,5.984c-0.165-1.082-0.704-2.941-2.443-4.828
		c-0.302-0.329-0.812-0.349-1.137-0.047c-0.324,0.302-0.348,0.812-0.046,1.137c1.439,1.563,1.879,3.047,2.018,3.893
		c-3.149,0.266-4.932,2.1-5.738,3.631c-0.816-0.14-2.417-0.582-3.447-1.953c-0.263-0.356-0.77-0.43-1.129-0.163
		c-0.355,0.267-0.425,0.77-0.158,1.129c1.264,1.683,3.116,2.302,4.232,2.53c-0.153,1.033-0.182,1.957-0.101,2.773
		c0,0.009,0.003,0.018,0.003,0.027c0.117,1.144,0.427,2.091,0.849,2.876c-1.086,0.577-2.875,1.769-3.627,3.649
		c-0.17,0.414,0.031,0.882,0.448,1.048c0.094,0.038,0.197,0.054,0.298,0.054c0.321,0,0.622-0.189,0.746-0.506
		c0.605-1.51,2.229-2.489,3.069-2.913c0.899,1.022,1.938,1.655,2.66,2.09c0.221,0.131,0.414,0.247,0.568,0.355
		c0.716,0.494,1.048,2.856,1.048,4.297v9.883c-1.083-0.346-1.876-1.364-1.883-2.649c-0.699-5.06-4.039-7.275-5.342-7.955
		l-0.043-0.023c-0.107-0.054-0.193-0.097-0.271-0.132l-0.139-0.068c-2.11-1.032-3.561-3.124-3.776-5.451l-0.023-0.259l-0.17-0.193
		c-1.06-1.222-1.643-2.787-1.643-4.406c0-1.427,0.444-2.795,1.287-3.958l0.22-0.302l-0.093-0.363
		c-0.131-0.553-0.201-1.098-0.201-1.624c0-2.88,1.832-5.446,4.562-6.39l0.31-0.109l0.146-0.292c1.156-2.319,3.476-3.762,6.054-3.762
		c0.394,0,0.788,0.047,1.167,0.112l0.395,0.068l0.294-0.27c2.219-2.041,5.705-2.339,8.256-0.684l0.375,0.247l0.406-0.197
		c2.791-1.33,6.262-0.533,8.184,1.863l0.242,0.302l0.777-0.02c3.186,0,5.969,2.261,6.621,5.377l0.078,0.391l0.363,0.174
		c2.346,1.117,3.865,3.514,3.865,6.104C63.803,39.096,60.77,42.13,57.043,42.13z"/>
</g>
</svg>
