<?xml version="1.0" encoding="utf-8"?>
<!-- Generator: Adobe Illustrator 16.0.0, SVG Export Plug-In . SVG Version: 6.00 Build 0)  -->
<!DOCTYPE svg PUBLIC "-//W3C//DTD SVG 1.1//EN" "http://www.w3.org/Graphics/SVG/1.1/DTD/svg11.dtd">
<svg version="1.1" id="Layer_1" xmlns="http://www.w3.org/2000/svg" xmlns:xlink="http://www.w3.org/1999/xlink" x="0px" y="0px"
	 width="80.002px" height="79.998px" viewBox="0 0 80.002 79.998" enable-background="new 0 0 80.002 79.998" xml:space="preserve">
<g>
	<path fill="#FFFFFF" d="M40.004,0C17.943,0,0,17.943,0,39.999s17.943,39.999,40.004,39.999c22.056,0,39.998-17.943,39.998-39.999
		S62.06,0,40.004,0z M40.004,78.545c-21.256,0-38.546-17.294-38.546-38.546S18.748,1.457,40.004,1.457
		c21.252,0,38.541,17.29,38.541,38.542S61.256,78.545,40.004,78.545z"/>
	<path fill="#FFFFFF" d="M49.779,19.86H30.229c-2.899,0-5.266,2.362-5.266,5.26v29.757c0,2.903,2.366,5.265,5.266,5.265h19.551
		c2.898,0,5.265-2.361,5.265-5.265V25.12C55.044,22.223,52.678,19.86,49.779,19.86z M53.428,54.877c0,2.014-1.639,3.653-3.648,3.653
		H30.229c-2.014,0-3.649-1.64-3.649-3.653V25.12c0-2.009,1.636-3.647,3.649-3.647h19.551c2.01,0,3.648,1.639,3.648,3.647V54.877z"/>
	<path fill="#FFFFFF" d="M37.549,34.646c0.112,0.051,0.225,0.073,0.34,0.073c0.303,0,0.596-0.174,0.73-0.468l0.759-1.643h4.033
		l0.651,1.411c0.186,0.405,0.66,0.576,1.07,0.395c0.402-0.186,0.58-0.665,0.395-1.067l-3.402-7.367
		c-0.262-0.569-1.197-0.569-1.461,0l-3.506,7.596C36.969,33.98,37.146,34.46,37.549,34.646z M41.395,28.24l1.272,2.757h-2.546
		L41.395,28.24z"/>
	<path fill="#FFFFFF" d="M50.309,28.933h-1.35v-1.349c0-0.445-0.359-0.805-0.803-0.805c-0.449,0-0.805,0.359-0.805,0.805v1.349
		h-1.353c-0.44,0-0.804,0.363-0.804,0.808s0.363,0.804,0.804,0.804h1.353v1.35c0,0.444,0.355,0.808,0.805,0.808
		c0.443,0,0.803-0.363,0.803-0.808v-1.35h1.35c0.445,0,0.809-0.359,0.809-0.804S50.754,28.933,50.309,28.933z"/>
	<path fill="#FFFFFF" d="M48.156,38.696H31.852c-0.445,0-0.805,0.363-0.805,0.809c0,0.444,0.359,0.804,0.805,0.804h16.305
		c0.443,0,0.803-0.359,0.803-0.804C48.959,39.06,48.6,38.696,48.156,38.696z"/>
	<path fill="#FFFFFF" d="M48.156,43.192H31.852c-0.445,0-0.805,0.359-0.805,0.803c0,0.445,0.359,0.805,0.805,0.805h16.305
		c0.443,0,0.803-0.359,0.803-0.805C48.959,43.552,48.6,43.192,48.156,43.192z"/>
	<path fill="#FFFFFF" d="M48.156,47.68H31.852c-0.445,0-0.805,0.363-0.805,0.808s0.359,0.805,0.805,0.805h16.305
		c0.443,0,0.803-0.36,0.803-0.805S48.6,47.68,48.156,47.68z"/>
	<path fill="#FFFFFF" d="M41.395,52.175h-9.543c-0.445,0-0.805,0.359-0.805,0.805c0,0.444,0.359,0.807,0.805,0.807h9.543
		c0.445,0,0.809-0.362,0.809-0.807C42.203,52.534,41.84,52.175,41.395,52.175z"/>
</g>
</svg>
