<?xml version="1.0" encoding="utf-8"?>
<!-- Generator: Adobe Illustrator 16.0.0, SVG Export Plug-In . SVG Version: 6.00 Build 0)  -->
<!DOCTYPE svg PUBLIC "-//W3C//DTD SVG 1.1//EN" "http://www.w3.org/Graphics/SVG/1.1/DTD/svg11.dtd">
<svg version="1.1" id="Layer_1" xmlns="http://www.w3.org/2000/svg" xmlns:xlink="http://www.w3.org/1999/xlink" x="0px" y="0px"
	 width="80px" height="80px" viewBox="0 0 80 80" enable-background="new 0 0 80 80" xml:space="preserve">
<path fill="#FFFFFF" d="M40,80C17.942,80,0,62.057,0,40C0,17.942,17.942,0,40,0c22.057,0,40,17.942,40,40C80,62.057,62.057,80,40,80
	z M40,1.454C18.747,1.454,1.455,18.746,1.455,40c0,21.252,17.292,38.544,38.545,38.544S78.545,61.252,78.545,40
	C78.545,18.746,61.253,1.454,40,1.454z M50.767,49.667c0.116-5.342-3.021-9.095-4.52-10.553l2.23-1.288
	c0.802-0.46,1.403-1.504,1.403-2.434V27.81c0-0.927-0.602-1.971-1.4-2.431l-6.57-3.794c-0.779-0.442-2.031-0.448-2.811,0
	l-6.579,3.797c-0.793,0.46-1.39,1.504-1.39,2.428v7.583c0,0.927,0.597,1.971,1.393,2.434l2.471,1.424
	c0.096,0.764,0.107,3.041-2.142,5.498c-0.989-0.906-2.294-1.47-3.732-1.47c-3.064,0-5.556,2.494-5.556,5.558
	c0,3.067,2.491,5.559,5.556,5.559s5.559-2.491,5.559-5.559c0-1.097-0.33-2.115-0.88-2.977c2.084-2.205,2.616-4.375,2.674-5.759
	l2.63,1.519c0.386,0.224,0.886,0.345,1.403,0.345c0.516,0,1.014-0.124,1.404-0.345l3.023-1.748c1.094,1.014,4.375,4.535,4.375,9.54
	c-0.05,0-0.104-0.014-0.156-0.014c-3.062,0-5.553,2.491-5.553,5.555c0,3.068,2.491,5.56,5.553,5.56c3.066,0,5.561-2.491,5.561-5.56
	C54.713,51.961,52.734,50.271,50.767,49.667z M29.12,52.939c-2.263,0-4.1-1.841-4.1-4.104s1.837-4.103,4.1-4.103
	s4.106,1.84,4.106,4.103S31.383,52.939,29.12,52.939z M41.184,40.358c-0.333,0.193-1.024,0.19-1.357,0l-6.574-3.791
	c-0.344-0.202-0.668-0.77-0.668-1.175V27.81c0-0.402,0.324-0.973,0.665-1.169l6.574-3.794c0.336-0.193,1.024-0.199,1.36,0
	l6.574,3.794c0.341,0.196,0.668,0.767,0.668,1.169v7.583c0,0.405-0.327,0.973-0.674,1.172L41.184,40.358z M49.152,59.057
	c-2.26,0-4.098-1.841-4.098-4.104c0-2.259,1.838-4.099,4.098-4.099c1.588,0,4.105,1.11,4.105,4.099
	C53.258,57.216,51.418,59.057,49.152,59.057z"/>
</svg>
